<?xml version="1.0" encoding="UTF-8" standalone="no"?>
<!DOCTYPE svg PUBLIC "-//W3C//DTD SVG 1.1//EN"
 "http://www.w3.org/Graphics/SVG/1.1/DTD/svg11.dtd">
<!-- Generated by graphviz version 9.0.0 (20230911.1827)
 -->
<!-- Title: G Pages: 1 -->
<svg width="2545pt" height="332pt"
 viewBox="0.00 0.00 2545.25 332.00" xmlns="http://www.w3.org/2000/svg" xmlns:xlink="http://www.w3.org/1999/xlink">
<g id="graph0" class="graph" transform="scale(1 1) rotate(0) translate(4 328)">
<title>G</title>
<polygon fill="white" stroke="none" points="-4,4 -4,-328 2541.25,-328 2541.25,4 -4,4"/>
<!-- Root -->
<g id="node1" class="node">
<title>Root</title>
<polygon fill="none" stroke="black" points="1194.75,-324 1140.75,-324 1140.75,-288 1194.75,-288 1194.75,-324"/>
<text text-anchor="middle" x="1167.75" y="-300.57" font-family="Times New Roman,serif" font-size="14.00">Root</text>
</g>
<!-- Finance -->
<g id="node2" class="node">
<title>Finance</title>
<polygon fill="none" stroke="black" points="157.5,-252 98,-252 98,-216 157.5,-216 157.5,-252"/>
<text text-anchor="middle" x="127.75" y="-228.57" font-family="Times New Roman,serif" font-size="14.00">Finance</text>
</g>
<!-- Root&#45;&gt;Finance -->
<g id="edge1" class="edge">
<title>Root&#45;&gt;Finance</title>
<path fill="none" stroke="black" d="M1140.47,-315C976.38,-315 127.75,-315 127.75,-315 127.75,-315 127.75,-263.89 127.75,-263.89"/>
<polygon fill="black" stroke="black" points="131.25,-263.89 127.75,-253.89 124.25,-263.89 131.25,-263.89"/>
</g>
<!-- Operations -->
<g id="node7" class="node">
<title>Operations</title>
<polygon fill="none" stroke="black" points="657.5,-252 580,-252 580,-216 657.5,-216 657.5,-252"/>
<text text-anchor="middle" x="618.75" y="-228.57" font-family="Times New Roman,serif" font-size="14.00">Operations</text>
</g>
<!-- Root&#45;&gt;Operations -->
<g id="edge6" class="edge">
<title>Root&#45;&gt;Operations</title>
<path fill="none" stroke="black" d="M1140.53,-306C1029.75,-306 618.75,-306 618.75,-306 618.75,-306 618.75,-263.68 618.75,-263.68"/>
<polygon fill="black" stroke="black" points="622.25,-263.68 618.75,-253.68 615.25,-263.68 622.25,-263.68"/>
</g>
<!-- Marketing -->
<g id="node18" class="node">
<title>Marketing</title>
<polygon fill="none" stroke="black" points="939.5,-252 868,-252 868,-216 939.5,-216 939.5,-252"/>
<text text-anchor="middle" x="903.75" y="-228.57" font-family="Times New Roman,serif" font-size="14.00">Marketing</text>
</g>
<!-- Root&#45;&gt;Marketing -->
<g id="edge19" class="edge">
<title>Root&#45;&gt;Marketing</title>
<path fill="none" stroke="black" d="M1140.49,-297C1073.04,-297 903.75,-297 903.75,-297 903.75,-297 903.75,-263.74 903.75,-263.74"/>
<polygon fill="black" stroke="black" points="907.25,-263.74 903.75,-253.74 900.25,-263.74 907.25,-263.74"/>
</g>
<!-- Human Resources -->
<g id="node27" class="node">
<title>Human Resources</title>
<polygon fill="none" stroke="black" points="1227.12,-252 1108.38,-252 1108.38,-216 1227.12,-216 1227.12,-252"/>
<text text-anchor="middle" x="1167.75" y="-228.57" font-family="Times New Roman,serif" font-size="14.00">Human Resources</text>
</g>
<!-- Root&#45;&gt;Human Resources -->
<g id="edge28" class="edge">
<title>Root&#45;&gt;Human Resources</title>
<path fill="none" stroke="black" d="M1167.75,-287.83C1167.75,-287.83 1167.75,-263.93 1167.75,-263.93"/>
<polygon fill="black" stroke="black" points="1171.25,-263.93 1167.75,-253.93 1164.25,-263.93 1171.25,-263.93"/>
</g>
<!-- Technology -->
<g id="node35" class="node">
<title>Technology</title>
<polygon fill="none" stroke="black" points="1589.12,-252 1506.38,-252 1506.38,-216 1589.12,-216 1589.12,-252"/>
<text text-anchor="middle" x="1547.75" y="-228.57" font-family="Times New Roman,serif" font-size="14.00">Technology</text>
</g>
<!-- Root&#45;&gt;Technology -->
<g id="edge36" class="edge">
<title>Root&#45;&gt;Technology</title>
<path fill="none" stroke="black" d="M1195.08,-297C1282.21,-297 1547.75,-297 1547.75,-297 1547.75,-297 1547.75,-263.74 1547.75,-263.74"/>
<polygon fill="black" stroke="black" points="1551.25,-263.74 1547.75,-253.74 1544.25,-263.74 1551.25,-263.74"/>
</g>
<!-- Sales -->
<g id="node49" class="node">
<title>Sales</title>
<polygon fill="none" stroke="black" points="2036.75,-252 1982.75,-252 1982.75,-216 2036.75,-216 2036.75,-252"/>
<text text-anchor="middle" x="2009.75" y="-228.57" font-family="Times New Roman,serif" font-size="14.00">Sales</text>
</g>
<!-- Root&#45;&gt;Sales -->
<g id="edge50" class="edge">
<title>Root&#45;&gt;Sales</title>
<path fill="none" stroke="black" d="M1194.81,-306C1338.93,-306 2009.75,-306 2009.75,-306 2009.75,-306 2009.75,-263.68 2009.75,-263.68"/>
<polygon fill="black" stroke="black" points="2013.25,-263.68 2009.75,-253.68 2006.25,-263.68 2013.25,-263.68"/>
</g>
<!-- Research and Development -->
<g id="node63" class="node">
<title>Research and Development</title>
<polygon fill="none" stroke="black" points="2386.25,-252 2217.25,-252 2217.25,-216 2386.25,-216 2386.25,-252"/>
<text text-anchor="middle" x="2301.75" y="-228.57" font-family="Times New Roman,serif" font-size="14.00">Research and Development</text>
</g>
<!-- Root&#45;&gt;Research and Development -->
<g id="edge64" class="edge">
<title>Root&#45;&gt;Research and Development</title>
<path fill="none" stroke="black" d="M1195.22,-315C1368.4,-315 2301.75,-315 2301.75,-315 2301.75,-315 2301.75,-263.89 2301.75,-263.89"/>
<polygon fill="black" stroke="black" points="2305.25,-263.89 2301.75,-253.89 2298.25,-263.89 2305.25,-263.89"/>
</g>
<!-- Accounting -->
<g id="node3" class="node">
<title>Accounting</title>
<polygon fill="none" stroke="black" points="168,-180 87.5,-180 87.5,-144 168,-144 168,-180"/>
<text text-anchor="middle" x="127.75" y="-156.57" font-family="Times New Roman,serif" font-size="14.00">Accounting</text>
</g>
<!-- Finance&#45;&gt;Accounting -->
<g id="edge2" class="edge">
<title>Finance&#45;&gt;Accounting</title>
<path fill="none" stroke="black" d="M127.75,-215.83C127.75,-215.83 127.75,-191.93 127.75,-191.93"/>
<polygon fill="black" stroke="black" points="131.25,-191.93 127.75,-181.93 124.25,-191.93 131.25,-191.93"/>
</g>
<!-- Treasury -->
<g id="node6" class="node">
<title>Treasury</title>
<polygon fill="none" stroke="black" points="65.5,-180 0,-180 0,-144 65.5,-144 65.5,-180"/>
<text text-anchor="middle" x="32.75" y="-156.57" font-family="Times New Roman,serif" font-size="14.00">Treasury</text>
</g>
<!-- Finance&#45;&gt;Treasury -->
<g id="edge5" class="edge">
<title>Finance&#45;&gt;Treasury</title>
<path fill="none" stroke="black" d="M97.69,-234C69.86,-234 32.75,-234 32.75,-234 32.75,-234 32.75,-191.68 32.75,-191.68"/>
<polygon fill="black" stroke="black" points="36.25,-191.68 32.75,-181.68 29.25,-191.68 36.25,-191.68"/>
</g>
<!-- Taxes -->
<g id="node4" class="node">
<title>Taxes</title>
<polygon fill="none" stroke="black" points="154.75,-108 100.75,-108 100.75,-72 154.75,-72 154.75,-108"/>
<text text-anchor="middle" x="127.75" y="-84.58" font-family="Times New Roman,serif" font-size="14.00">Taxes</text>
</g>
<!-- Accounting&#45;&gt;Taxes -->
<g id="edge3" class="edge">
<title>Accounting&#45;&gt;Taxes</title>
<path fill="none" stroke="black" d="M127.75,-143.83C127.75,-143.83 127.75,-119.93 127.75,-119.93"/>
<polygon fill="black" stroke="black" points="131.25,-119.93 127.75,-109.93 124.25,-119.93 131.25,-119.93"/>
</g>
<!-- Payroll -->
<g id="node5" class="node">
<title>Payroll</title>
<polygon fill="none" stroke="black" points="78.25,-108 23.25,-108 23.25,-72 78.25,-72 78.25,-108"/>
<text text-anchor="middle" x="50.75" y="-84.58" font-family="Times New Roman,serif" font-size="14.00">Payroll</text>
</g>
<!-- Accounting&#45;&gt;Payroll -->
<g id="edge4" class="edge">
<title>Accounting&#45;&gt;Payroll</title>
<path fill="none" stroke="black" d="M87.14,-162C78.48,-162 71.88,-162 71.88,-162 71.88,-162 71.88,-119.68 71.88,-119.68"/>
<polygon fill="black" stroke="black" points="75.38,-119.68 71.88,-109.68 68.38,-119.68 75.38,-119.68"/>
</g>
<!-- Logistics -->
<g id="node8" class="node">
<title>Logistics</title>
<polygon fill="none" stroke="black" points="652.25,-180 585.25,-180 585.25,-144 652.25,-144 652.25,-180"/>
<text text-anchor="middle" x="618.75" y="-156.57" font-family="Times New Roman,serif" font-size="14.00">Logistics</text>
</g>
<!-- Operations&#45;&gt;Logistics -->
<g id="edge7" class="edge">
<title>Operations&#45;&gt;Logistics</title>
<path fill="none" stroke="black" d="M618.75,-215.83C618.75,-215.83 618.75,-191.93 618.75,-191.93"/>
<polygon fill="black" stroke="black" points="622.25,-191.93 618.75,-181.93 615.25,-191.93 622.25,-191.93"/>
</g>
<!-- Manufacturing -->
<g id="node12" class="node">
<title>Manufacturing</title>
<polygon fill="none" stroke="black" points="421.88,-180 325.62,-180 325.62,-144 421.88,-144 421.88,-180"/>
<text text-anchor="middle" x="373.75" y="-156.57" font-family="Times New Roman,serif" font-size="14.00">Manufacturing</text>
</g>
<!-- Operations&#45;&gt;Manufacturing -->
<g id="edge11" class="edge">
<title>Operations&#45;&gt;Manufacturing</title>
<path fill="none" stroke="black" d="M579.66,-234C510.49,-234 373.75,-234 373.75,-234 373.75,-234 373.75,-191.68 373.75,-191.68"/>
<polygon fill="black" stroke="black" points="377.25,-191.68 373.75,-181.68 370.25,-191.68 377.25,-191.68"/>
</g>
<!-- Shipping -->
<g id="node9" class="node">
<title>Shipping</title>
<polygon fill="none" stroke="black" points="778.5,-108 713,-108 713,-72 778.5,-72 778.5,-108"/>
<text text-anchor="middle" x="745.75" y="-84.58" font-family="Times New Roman,serif" font-size="14.00">Shipping</text>
</g>
<!-- Logistics&#45;&gt;Shipping -->
<g id="edge8" class="edge">
<title>Logistics&#45;&gt;Shipping</title>
<path fill="none" stroke="black" d="M652.69,-162C683.51,-162 724.19,-162 724.19,-162 724.19,-162 724.19,-119.68 724.19,-119.68"/>
<polygon fill="black" stroke="black" points="727.69,-119.68 724.19,-109.68 720.69,-119.68 727.69,-119.68"/>
</g>
<!-- Receiving -->
<g id="node10" class="node">
<title>Receiving</title>
<polygon fill="none" stroke="black" points="525.12,-108 454.38,-108 454.38,-72 525.12,-72 525.12,-108"/>
<text text-anchor="middle" x="489.75" y="-84.58" font-family="Times New Roman,serif" font-size="14.00">Receiving</text>
</g>
<!-- Logistics&#45;&gt;Receiving -->
<g id="edge9" class="edge">
<title>Logistics&#45;&gt;Receiving</title>
<path fill="none" stroke="black" d="M584.86,-162C546.64,-162 489.75,-162 489.75,-162 489.75,-162 489.75,-119.68 489.75,-119.68"/>
<polygon fill="black" stroke="black" points="493.25,-119.68 489.75,-109.68 486.25,-119.68 493.25,-119.68"/>
</g>
<!-- Inventory Management -->
<g id="node11" class="node">
<title>Inventory Management</title>
<polygon fill="none" stroke="black" points="690.5,-108 547,-108 547,-72 690.5,-72 690.5,-108"/>
<text text-anchor="middle" x="618.75" y="-84.58" font-family="Times New Roman,serif" font-size="14.00">Inventory Management</text>
</g>
<!-- Logistics&#45;&gt;Inventory Management -->
<g id="edge10" class="edge">
<title>Logistics&#45;&gt;Inventory Management</title>
<path fill="none" stroke="black" d="M618.75,-143.83C618.75,-143.83 618.75,-119.93 618.75,-119.93"/>
<polygon fill="black" stroke="black" points="622.25,-119.93 618.75,-109.93 615.25,-119.93 622.25,-119.93"/>
</g>
<!-- Production Line 1 -->
<g id="node13" class="node">
<title>Production Line 1</title>
<polygon fill="none" stroke="black" points="293,-108 176.5,-108 176.5,-72 293,-72 293,-108"/>
<text text-anchor="middle" x="234.75" y="-84.58" font-family="Times New Roman,serif" font-size="14.00">Production Line 1</text>
</g>
<!-- Manufacturing&#45;&gt;Production Line 1 -->
<g id="edge12" class="edge">
<title>Manufacturing&#45;&gt;Production Line 1</title>
<path fill="none" stroke="black" d="M325.13,-162C285.05,-162 234.75,-162 234.75,-162 234.75,-162 234.75,-119.68 234.75,-119.68"/>
<polygon fill="black" stroke="black" points="238.25,-119.68 234.75,-109.68 231.25,-119.68 238.25,-119.68"/>
</g>
<!-- Production Line 2 -->
<g id="node17" class="node">
<title>Production Line 2</title>
<polygon fill="none" stroke="black" points="432,-108 315.5,-108 315.5,-72 432,-72 432,-108"/>
<text text-anchor="middle" x="373.75" y="-84.58" font-family="Times New Roman,serif" font-size="14.00">Production Line 2</text>
</g>
<!-- Manufacturing&#45;&gt;Production Line 2 -->
<g id="edge16" class="edge">
<title>Manufacturing&#45;&gt;Production Line 2</title>
<path fill="none" stroke="black" d="M373.75,-143.83C373.75,-143.83 373.75,-119.93 373.75,-119.93"/>
<polygon fill="black" stroke="black" points="377.25,-119.93 373.75,-109.93 370.25,-119.93 377.25,-119.93"/>
</g>
<!-- Workstation 1 -->
<g id="node14" class="node">
<title>Workstation 1</title>
<polygon fill="none" stroke="black" points="303.5,-36 208,-36 208,0 303.5,0 303.5,-36"/>
<text text-anchor="middle" x="255.75" y="-12.57" font-family="Times New Roman,serif" font-size="14.00">Workstation 1</text>
</g>
<!-- Production Line 1&#45;&gt;Workstation 1 -->
<g id="edge13" class="edge">
<title>Production Line 1&#45;&gt;Workstation 1</title>
<path fill="none" stroke="black" d="M250.5,-71.83C250.5,-71.83 250.5,-47.93 250.5,-47.93"/>
<polygon fill="black" stroke="black" points="254,-47.93 250.5,-37.93 247,-47.93 254,-47.93"/>
</g>
<!-- Workstation 2 -->
<g id="node15" class="node">
<title>Workstation 2</title>
<polygon fill="none" stroke="black" points="421.5,-36 326,-36 326,0 421.5,0 421.5,-36"/>
<text text-anchor="middle" x="373.75" y="-12.57" font-family="Times New Roman,serif" font-size="14.00">Workstation 2</text>
</g>
<!-- Production Line 1&#45;&gt;Workstation 2 -->
<g id="edge14" class="edge">
<title>Production Line 1&#45;&gt;Workstation 2</title>
<path fill="none" stroke="black" d="M293.28,-96C302.74,-96 309.5,-96 309.5,-96 309.5,-96 309.5,-18 309.5,-18 309.5,-18 314.2,-18 314.2,-18"/>
<polygon fill="black" stroke="black" points="314.2,-21.5 324.2,-18 314.2,-14.5 314.2,-21.5"/>
</g>
<!-- Workstation 3 -->
<g id="node16" class="node">
<title>Workstation 3</title>
<polygon fill="none" stroke="black" points="185.5,-36 90,-36 90,0 185.5,0 185.5,-36"/>
<text text-anchor="middle" x="137.75" y="-12.57" font-family="Times New Roman,serif" font-size="14.00">Workstation 3</text>
</g>
<!-- Production Line 1&#45;&gt;Workstation 3 -->
<g id="edge15" class="edge">
<title>Production Line 1&#45;&gt;Workstation 3</title>
<path fill="none" stroke="black" d="M181,-71.83C181,-71.83 181,-47.93 181,-47.93"/>
<polygon fill="black" stroke="black" points="184.5,-47.93 181,-37.93 177.5,-47.93 184.5,-47.93"/>
</g>
<!-- Production Line 2&#45;&gt;Workstation 1 -->
<g id="edge17" class="edge">
<title>Production Line 2&#45;&gt;Workstation 1</title>
<path fill="none" stroke="black" d="M315.01,-84C305.26,-84 298.25,-84 298.25,-84 298.25,-84 298.25,-47.9 298.25,-47.9"/>
<polygon fill="black" stroke="black" points="301.75,-47.9 298.25,-37.9 294.75,-47.9 301.75,-47.9"/>
</g>
<!-- Production Line 2&#45;&gt;Workstation 2 -->
<g id="edge18" class="edge">
<title>Production Line 2&#45;&gt;Workstation 2</title>
<path fill="none" stroke="black" d="M373.75,-71.83C373.75,-71.83 373.75,-47.93 373.75,-47.93"/>
<polygon fill="black" stroke="black" points="377.25,-47.93 373.75,-37.93 370.25,-47.93 377.25,-47.93"/>
</g>
<!-- Advertising -->
<g id="node19" class="node">
<title>Advertising</title>
<polygon fill="none" stroke="black" points="943.62,-180 863.88,-180 863.88,-144 943.62,-144 943.62,-180"/>
<text text-anchor="middle" x="903.75" y="-156.57" font-family="Times New Roman,serif" font-size="14.00">Advertising</text>
</g>
<!-- Marketing&#45;&gt;Advertising -->
<g id="edge20" class="edge">
<title>Marketing&#45;&gt;Advertising</title>
<path fill="none" stroke="black" d="M903.75,-215.83C903.75,-215.83 903.75,-191.93 903.75,-191.93"/>
<polygon fill="black" stroke="black" points="907.25,-191.93 903.75,-181.93 900.25,-191.93 907.25,-191.93"/>
</g>
<!-- Public Relations -->
<g id="node26" class="node">
<title>Public Relations</title>
<polygon fill="none" stroke="black" points="842.12,-180 735.38,-180 735.38,-144 842.12,-144 842.12,-180"/>
<text text-anchor="middle" x="788.75" y="-156.57" font-family="Times New Roman,serif" font-size="14.00">Public Relations</text>
</g>
<!-- Marketing&#45;&gt;Public Relations -->
<g id="edge27" class="edge">
<title>Marketing&#45;&gt;Public Relations</title>
<path fill="none" stroke="black" d="M867.68,-234C833.95,-234 788.75,-234 788.75,-234 788.75,-234 788.75,-191.68 788.75,-191.68"/>
<polygon fill="black" stroke="black" points="792.25,-191.68 788.75,-181.68 785.25,-191.68 792.25,-191.68"/>
</g>
<!-- Online -->
<g id="node20" class="node">
<title>Online</title>
<polygon fill="none" stroke="black" points="930.75,-108 876.75,-108 876.75,-72 930.75,-72 930.75,-108"/>
<text text-anchor="middle" x="903.75" y="-84.58" font-family="Times New Roman,serif" font-size="14.00">Online</text>
</g>
<!-- Advertising&#45;&gt;Online -->
<g id="edge21" class="edge">
<title>Advertising&#45;&gt;Online</title>
<path fill="none" stroke="black" d="M903.75,-143.83C903.75,-143.83 903.75,-119.93 903.75,-119.93"/>
<polygon fill="black" stroke="black" points="907.25,-119.93 903.75,-109.93 900.25,-119.93 907.25,-119.93"/>
</g>
<!-- Print -->
<g id="node23" class="node">
<title>Print</title>
<polygon fill="none" stroke="black" points="854.75,-108 800.75,-108 800.75,-72 854.75,-72 854.75,-108"/>
<text text-anchor="middle" x="827.75" y="-84.58" font-family="Times New Roman,serif" font-size="14.00">Print</text>
</g>
<!-- Advertising&#45;&gt;Print -->
<g id="edge24" class="edge">
<title>Advertising&#45;&gt;Print</title>
<path fill="none" stroke="black" d="M868.62,-143.83C868.62,-122.5 868.62,-90 868.62,-90 868.62,-90 866.75,-90 866.75,-90"/>
<polygon fill="black" stroke="black" points="866.75,-86.5 856.75,-90 866.75,-93.5 866.75,-86.5"/>
</g>
<!-- Social Media -->
<g id="node21" class="node">
<title>Social Media</title>
<polygon fill="none" stroke="black" points="962.12,-36 873.38,-36 873.38,0 962.12,0 962.12,-36"/>
<text text-anchor="middle" x="917.75" y="-12.57" font-family="Times New Roman,serif" font-size="14.00">Social Media</text>
</g>
<!-- Online&#45;&gt;Social Media -->
<g id="edge22" class="edge">
<title>Online&#45;&gt;Social Media</title>
<path fill="none" stroke="black" d="M894.75,-71.83C894.75,-71.83 894.75,-47.93 894.75,-47.93"/>
<polygon fill="black" stroke="black" points="898.25,-47.93 894.75,-37.93 891.25,-47.93 898.25,-47.93"/>
</g>
<!-- SEO -->
<g id="node22" class="node">
<title>SEO</title>
<polygon fill="none" stroke="black" points="1037.75,-36 983.75,-36 983.75,0 1037.75,0 1037.75,-36"/>
<text text-anchor="middle" x="1010.75" y="-12.57" font-family="Times New Roman,serif" font-size="14.00">SEO</text>
</g>
<!-- Online&#45;&gt;SEO -->
<g id="edge23" class="edge">
<title>Online&#45;&gt;SEO</title>
<path fill="none" stroke="black" d="M912.75,-71.94C912.75,-60.56 912.75,-48 912.75,-48 912.75,-48 1009.44,-48 1009.44,-48 1009.44,-48 1009.44,-46.85 1009.44,-46.85"/>
<polygon fill="black" stroke="black" points="1012.94,-48 1009.44,-38 1005.94,-48 1012.94,-48"/>
</g>
<!-- Magazines -->
<g id="node24" class="node">
<title>Magazines</title>
<polygon fill="none" stroke="black" points="756,-36 681.5,-36 681.5,0 756,0 756,-36"/>
<text text-anchor="middle" x="718.75" y="-12.57" font-family="Times New Roman,serif" font-size="14.00">Magazines</text>
</g>
<!-- Print&#45;&gt;Magazines -->
<g id="edge25" class="edge">
<title>Print&#45;&gt;Magazines</title>
<path fill="none" stroke="black" d="M817.58,-71.58C817.58,-62.72 817.58,-54 817.58,-54 817.58,-54 734.5,-54 734.5,-54 734.5,-54 734.5,-47.94 734.5,-47.94"/>
<polygon fill="black" stroke="black" points="738,-47.94 734.5,-37.94 731,-47.94 738,-47.94"/>
</g>
<!-- Billboards -->
<g id="node25" class="node">
<title>Billboards</title>
<polygon fill="none" stroke="black" points="851.25,-36 778.25,-36 778.25,0 851.25,0 851.25,-36"/>
<text text-anchor="middle" x="814.75" y="-12.57" font-family="Times New Roman,serif" font-size="14.00">Billboards</text>
</g>
<!-- Print&#45;&gt;Billboards -->
<g id="edge26" class="edge">
<title>Print&#45;&gt;Billboards</title>
<path fill="none" stroke="black" d="M834.42,-71.83C834.42,-71.83 834.42,-47.93 834.42,-47.93"/>
<polygon fill="black" stroke="black" points="837.92,-47.93 834.42,-37.93 830.92,-47.93 837.92,-47.93"/>
</g>
<!-- Recruitment -->
<g id="node28" class="node">
<title>Recruitment</title>
<polygon fill="none" stroke="black" points="1082.5,-180 999,-180 999,-144 1082.5,-144 1082.5,-180"/>
<text text-anchor="middle" x="1040.75" y="-156.57" font-family="Times New Roman,serif" font-size="14.00">Recruitment</text>
</g>
<!-- Human Resources&#45;&gt;Recruitment -->
<g id="edge29" class="edge">
<title>Human Resources&#45;&gt;Recruitment</title>
<path fill="none" stroke="black" d="M1107.97,-234C1075.03,-234 1040.75,-234 1040.75,-234 1040.75,-234 1040.75,-191.68 1040.75,-191.68"/>
<polygon fill="black" stroke="black" points="1044.25,-191.68 1040.75,-181.68 1037.25,-191.68 1044.25,-191.68"/>
</g>
<!-- Employee Relations -->
<g id="node31" class="node">
<title>Employee Relations</title>
<polygon fill="none" stroke="black" points="1231.25,-180 1104.25,-180 1104.25,-144 1231.25,-144 1231.25,-180"/>
<text text-anchor="middle" x="1167.75" y="-156.57" font-family="Times New Roman,serif" font-size="14.00">Employee Relations</text>
</g>
<!-- Human Resources&#45;&gt;Employee Relations -->
<g id="edge32" class="edge">
<title>Human Resources&#45;&gt;Employee Relations</title>
<path fill="none" stroke="black" d="M1167.75,-215.83C1167.75,-215.83 1167.75,-191.93 1167.75,-191.93"/>
<polygon fill="black" stroke="black" points="1171.25,-191.93 1167.75,-181.93 1164.25,-191.93 1171.25,-191.93"/>
</g>
<!-- Training -->
<g id="node32" class="node">
<title>Training</title>
<polygon fill="none" stroke="black" points="1314.62,-180 1252.88,-180 1252.88,-144 1314.62,-144 1314.62,-180"/>
<text text-anchor="middle" x="1283.75" y="-156.57" font-family="Times New Roman,serif" font-size="14.00">Training</text>
</g>
<!-- Human Resources&#45;&gt;Training -->
<g id="edge33" class="edge">
<title>Human Resources&#45;&gt;Training</title>
<path fill="none" stroke="black" d="M1227.45,-234C1255.87,-234 1283.75,-234 1283.75,-234 1283.75,-234 1283.75,-191.68 1283.75,-191.68"/>
<polygon fill="black" stroke="black" points="1287.25,-191.68 1283.75,-181.68 1280.25,-191.68 1287.25,-191.68"/>
</g>
<!-- Interviews -->
<g id="node29" class="node">
<title>Interviews</title>
<polygon fill="none" stroke="black" points="1130.25,-108 1057.25,-108 1057.25,-72 1130.25,-72 1130.25,-108"/>
<text text-anchor="middle" x="1093.75" y="-84.58" font-family="Times New Roman,serif" font-size="14.00">Interviews</text>
</g>
<!-- Recruitment&#45;&gt;Interviews -->
<g id="edge30" class="edge">
<title>Recruitment&#45;&gt;Interviews</title>
<path fill="none" stroke="black" d="M1069.88,-143.83C1069.88,-143.83 1069.88,-119.93 1069.88,-119.93"/>
<polygon fill="black" stroke="black" points="1073.38,-119.93 1069.88,-109.93 1066.38,-119.93 1073.38,-119.93"/>
</g>
<!-- Onboarding -->
<g id="node30" class="node">
<title>Onboarding</title>
<polygon fill="none" stroke="black" points="1035.12,-108 952.38,-108 952.38,-72 1035.12,-72 1035.12,-108"/>
<text text-anchor="middle" x="993.75" y="-84.58" font-family="Times New Roman,serif" font-size="14.00">Onboarding</text>
</g>
<!-- Recruitment&#45;&gt;Onboarding -->
<g id="edge31" class="edge">
<title>Recruitment&#45;&gt;Onboarding</title>
<path fill="none" stroke="black" d="M1017.06,-143.83C1017.06,-143.83 1017.06,-119.93 1017.06,-119.93"/>
<polygon fill="black" stroke="black" points="1020.56,-119.93 1017.06,-109.93 1013.56,-119.93 1020.56,-119.93"/>
</g>
<!-- Leadership -->
<g id="node33" class="node">
<title>Leadership</title>
<polygon fill="none" stroke="black" points="1355.5,-108 1278,-108 1278,-72 1355.5,-72 1355.5,-108"/>
<text text-anchor="middle" x="1316.75" y="-84.58" font-family="Times New Roman,serif" font-size="14.00">Leadership</text>
</g>
<!-- Training&#45;&gt;Leadership -->
<g id="edge34" class="edge">
<title>Training&#45;&gt;Leadership</title>
<path fill="none" stroke="black" d="M1296.31,-143.83C1296.31,-143.83 1296.31,-119.93 1296.31,-119.93"/>
<polygon fill="black" stroke="black" points="1299.81,-119.93 1296.31,-109.93 1292.81,-119.93 1299.81,-119.93"/>
</g>
<!-- Technical Skills -->
<g id="node34" class="node">
<title>Technical Skills</title>
<polygon fill="none" stroke="black" points="1255.62,-108 1151.88,-108 1151.88,-72 1255.62,-72 1255.62,-108"/>
<text text-anchor="middle" x="1203.75" y="-84.58" font-family="Times New Roman,serif" font-size="14.00">Technical Skills</text>
</g>
<!-- Training&#45;&gt;Technical Skills -->
<g id="edge35" class="edge">
<title>Training&#45;&gt;Technical Skills</title>
<path fill="none" stroke="black" d="M1252.58,-162C1246.55,-162 1242.06,-162 1242.06,-162 1242.06,-162 1242.06,-119.68 1242.06,-119.68"/>
<polygon fill="black" stroke="black" points="1245.56,-119.68 1242.06,-109.68 1238.56,-119.68 1245.56,-119.68"/>
</g>
<!-- Software Development -->
<g id="node36" class="node">
<title>Software Development</title>
<polygon fill="none" stroke="black" points="1553.5,-180 1410,-180 1410,-144 1553.5,-144 1553.5,-180"/>
<text text-anchor="middle" x="1481.75" y="-156.57" font-family="Times New Roman,serif" font-size="14.00">Software Development</text>
</g>
<!-- Technology&#45;&gt;Software Development -->
<g id="edge37" class="edge">
<title>Technology&#45;&gt;Software Development</title>
<path fill="none" stroke="black" d="M1529.94,-215.83C1529.94,-215.83 1529.94,-191.93 1529.94,-191.93"/>
<polygon fill="black" stroke="black" points="1533.44,-191.93 1529.94,-181.93 1526.44,-191.93 1533.44,-191.93"/>
</g>
<!-- IT Support -->
<g id="node43" class="node">
<title>IT Support</title>
<polygon fill="none" stroke="black" points="1654.25,-180 1575.25,-180 1575.25,-144 1654.25,-144 1654.25,-180"/>
<text text-anchor="middle" x="1614.75" y="-156.57" font-family="Times New Roman,serif" font-size="14.00">IT Support</text>
</g>
<!-- Technology&#45;&gt;IT Support -->
<g id="edge44" class="edge">
<title>Technology&#45;&gt;IT Support</title>
<path fill="none" stroke="black" d="M1582.19,-215.83C1582.19,-215.83 1582.19,-191.93 1582.19,-191.93"/>
<polygon fill="black" stroke="black" points="1585.69,-191.93 1582.19,-181.93 1578.69,-191.93 1585.69,-191.93"/>
</g>
<!-- Security -->
<g id="node46" class="node">
<title>Security</title>
<polygon fill="none" stroke="black" points="1834.62,-180 1772.88,-180 1772.88,-144 1834.62,-144 1834.62,-180"/>
<text text-anchor="middle" x="1803.75" y="-156.57" font-family="Times New Roman,serif" font-size="14.00">Security</text>
</g>
<!-- Technology&#45;&gt;Security -->
<g id="edge47" class="edge">
<title>Technology&#45;&gt;Security</title>
<path fill="none" stroke="black" d="M1589.45,-234C1661.99,-234 1803.75,-234 1803.75,-234 1803.75,-234 1803.75,-191.68 1803.75,-191.68"/>
<polygon fill="black" stroke="black" points="1807.25,-191.68 1803.75,-181.68 1800.25,-191.68 1807.25,-191.68"/>
</g>
<!-- Frontend -->
<g id="node37" class="node">
<title>Frontend</title>
<polygon fill="none" stroke="black" points="1531.25,-108 1464.25,-108 1464.25,-72 1531.25,-72 1531.25,-108"/>
<text text-anchor="middle" x="1497.75" y="-84.58" font-family="Times New Roman,serif" font-size="14.00">Frontend</text>
</g>
<!-- Software Development&#45;&gt;Frontend -->
<g id="edge38" class="edge">
<title>Software Development&#45;&gt;Frontend</title>
<path fill="none" stroke="black" d="M1497.75,-143.83C1497.75,-143.83 1497.75,-119.93 1497.75,-119.93"/>
<polygon fill="black" stroke="black" points="1501.25,-119.93 1497.75,-109.93 1494.25,-119.93 1501.25,-119.93"/>
</g>
<!-- Backend -->
<g id="node40" class="node">
<title>Backend</title>
<polygon fill="none" stroke="black" points="1442.12,-108 1377.38,-108 1377.38,-72 1442.12,-72 1442.12,-108"/>
<text text-anchor="middle" x="1409.75" y="-84.58" font-family="Times New Roman,serif" font-size="14.00">Backend</text>
</g>
<!-- Software Development&#45;&gt;Backend -->
<g id="edge41" class="edge">
<title>Software Development&#45;&gt;Backend</title>
<path fill="none" stroke="black" d="M1426.06,-143.83C1426.06,-143.83 1426.06,-119.93 1426.06,-119.93"/>
<polygon fill="black" stroke="black" points="1429.56,-119.93 1426.06,-109.93 1422.56,-119.93 1429.56,-119.93"/>
</g>
<!-- React -->
<g id="node38" class="node">
<title>React</title>
<polygon fill="none" stroke="black" points="1521.75,-36 1467.75,-36 1467.75,0 1521.75,0 1521.75,-36"/>
<text text-anchor="middle" x="1494.75" y="-12.57" font-family="Times New Roman,serif" font-size="14.00">React</text>
</g>
<!-- Frontend&#45;&gt;React -->
<g id="edge39" class="edge">
<title>Frontend&#45;&gt;React</title>
<path fill="none" stroke="black" d="M1494.75,-71.83C1494.75,-71.83 1494.75,-47.93 1494.75,-47.93"/>
<polygon fill="black" stroke="black" points="1498.25,-47.93 1494.75,-37.93 1491.25,-47.93 1498.25,-47.93"/>
</g>
<!-- Angular -->
<g id="node39" class="node">
<title>Angular</title>
<polygon fill="none" stroke="black" points="1603.5,-36 1544,-36 1544,0 1603.5,0 1603.5,-36"/>
<text text-anchor="middle" x="1573.75" y="-12.57" font-family="Times New Roman,serif" font-size="14.00">Angular</text>
</g>
<!-- Frontend&#45;&gt;Angular -->
<g id="edge40" class="edge">
<title>Frontend&#45;&gt;Angular</title>
<path fill="none" stroke="black" d="M1526.5,-71.83C1526.5,-50.5 1526.5,-18 1526.5,-18 1526.5,-18 1532.04,-18 1532.04,-18"/>
<polygon fill="black" stroke="black" points="1532.04,-21.5 1542.04,-18 1532.04,-14.5 1532.04,-21.5"/>
</g>
<!-- Node.js -->
<g id="node41" class="node">
<title>Node.js</title>
<polygon fill="none" stroke="black" points="1362.5,-36 1303,-36 1303,0 1362.5,0 1362.5,-36"/>
<text text-anchor="middle" x="1332.75" y="-12.57" font-family="Times New Roman,serif" font-size="14.00">Node.js</text>
</g>
<!-- Backend&#45;&gt;Node.js -->
<g id="edge42" class="edge">
<title>Backend&#45;&gt;Node.js</title>
<path fill="none" stroke="black" d="M1377.04,-90C1367.22,-90 1359,-90 1359,-90 1359,-90 1359,-47.68 1359,-47.68"/>
<polygon fill="black" stroke="black" points="1362.5,-47.68 1359,-37.68 1355.5,-47.68 1362.5,-47.68"/>
</g>
<!-- Django -->
<g id="node42" class="node">
<title>Django</title>
<polygon fill="none" stroke="black" points="1440.62,-36 1384.88,-36 1384.88,0 1440.62,0 1440.62,-36"/>
<text text-anchor="middle" x="1412.75" y="-12.57" font-family="Times New Roman,serif" font-size="14.00">Django</text>
</g>
<!-- Backend&#45;&gt;Django -->
<g id="edge43" class="edge">
<title>Backend&#45;&gt;Django</title>
<path fill="none" stroke="black" d="M1412.75,-71.83C1412.75,-71.83 1412.75,-47.93 1412.75,-47.93"/>
<polygon fill="black" stroke="black" points="1416.25,-47.93 1412.75,-37.93 1409.25,-47.93 1416.25,-47.93"/>
</g>
<!-- Helpdesk -->
<g id="node44" class="node">
<title>Helpdesk</title>
<polygon fill="none" stroke="black" points="1735,-108 1666.5,-108 1666.5,-72 1735,-72 1735,-108"/>
<text text-anchor="middle" x="1700.75" y="-84.58" font-family="Times New Roman,serif" font-size="14.00">Helpdesk</text>
</g>
<!-- IT Support&#45;&gt;Helpdesk -->
<g id="edge45" class="edge">
<title>IT Support&#45;&gt;Helpdesk</title>
<path fill="none" stroke="black" d="M1649.25,-143.83C1649.25,-122.5 1649.25,-90 1649.25,-90 1649.25,-90 1654.6,-90 1654.6,-90"/>
<polygon fill="black" stroke="black" points="1654.6,-93.5 1664.6,-90 1654.6,-86.5 1654.6,-93.5"/>
</g>
<!-- Infrastructure -->
<g id="node45" class="node">
<title>Infrastructure</title>
<polygon fill="none" stroke="black" points="1644.25,-108 1553.25,-108 1553.25,-72 1644.25,-72 1644.25,-108"/>
<text text-anchor="middle" x="1598.75" y="-84.58" font-family="Times New Roman,serif" font-size="14.00">Infrastructure</text>
</g>
<!-- IT Support&#45;&gt;Infrastructure -->
<g id="edge46" class="edge">
<title>IT Support&#45;&gt;Infrastructure</title>
<path fill="none" stroke="black" d="M1609.75,-143.83C1609.75,-143.83 1609.75,-119.93 1609.75,-119.93"/>
<polygon fill="black" stroke="black" points="1613.25,-119.93 1609.75,-109.93 1606.25,-119.93 1613.25,-119.93"/>
</g>
<!-- Physical -->
<g id="node47" class="node">
<title>Physical</title>
<polygon fill="none" stroke="black" points="1935,-108 1872.5,-108 1872.5,-72 1935,-72 1935,-108"/>
<text text-anchor="middle" x="1903.75" y="-84.58" font-family="Times New Roman,serif" font-size="14.00">Physical</text>
</g>
<!-- Security&#45;&gt;Physical -->
<g id="edge48" class="edge">
<title>Security&#45;&gt;Physical</title>
<path fill="none" stroke="black" d="M1835.12,-162C1864.44,-162 1903.75,-162 1903.75,-162 1903.75,-162 1903.75,-119.68 1903.75,-119.68"/>
<polygon fill="black" stroke="black" points="1907.25,-119.68 1903.75,-109.68 1900.25,-119.68 1907.25,-119.68"/>
</g>
<!-- Cybersecurity -->
<g id="node48" class="node">
<title>Cybersecurity</title>
<polygon fill="none" stroke="black" points="1850.75,-108 1756.75,-108 1756.75,-72 1850.75,-72 1850.75,-108"/>
<text text-anchor="middle" x="1803.75" y="-84.58" font-family="Times New Roman,serif" font-size="14.00">Cybersecurity</text>
</g>
<!-- Security&#45;&gt;Cybersecurity -->
<g id="edge49" class="edge">
<title>Security&#45;&gt;Cybersecurity</title>
<path fill="none" stroke="black" d="M1803.75,-143.83C1803.75,-143.83 1803.75,-119.93 1803.75,-119.93"/>
<polygon fill="black" stroke="black" points="1807.25,-119.93 1803.75,-109.93 1800.25,-119.93 1807.25,-119.93"/>
</g>
<!-- Domestic -->
<g id="node50" class="node">
<title>Domestic</title>
<polygon fill="none" stroke="black" points="2170.38,-180 2101.12,-180 2101.12,-144 2170.38,-144 2170.38,-180"/>
<text text-anchor="middle" x="2135.75" y="-156.57" font-family="Times New Roman,serif" font-size="14.00">Domestic</text>
</g>
<!-- Sales&#45;&gt;Domestic -->
<g id="edge51" class="edge">
<title>Sales&#45;&gt;Domestic</title>
<path fill="none" stroke="black" d="M2037.09,-234C2074.15,-234 2135.75,-234 2135.75,-234 2135.75,-234 2135.75,-191.68 2135.75,-191.68"/>
<polygon fill="black" stroke="black" points="2139.25,-191.68 2135.75,-181.68 2132.25,-191.68 2139.25,-191.68"/>
</g>
<!-- International -->
<g id="node60" class="node">
<title>International</title>
<polygon fill="none" stroke="black" points="2051.88,-180 1967.62,-180 1967.62,-144 2051.88,-144 2051.88,-180"/>
<text text-anchor="middle" x="2009.75" y="-156.57" font-family="Times New Roman,serif" font-size="14.00">International</text>
</g>
<!-- Sales&#45;&gt;International -->
<g id="edge61" class="edge">
<title>Sales&#45;&gt;International</title>
<path fill="none" stroke="black" d="M2009.75,-215.83C2009.75,-215.83 2009.75,-191.93 2009.75,-191.93"/>
<polygon fill="black" stroke="black" points="2013.25,-191.93 2009.75,-181.93 2006.25,-191.93 2013.25,-191.93"/>
</g>
<!-- Regional -->
<g id="node51" class="node">
<title>Regional</title>
<polygon fill="none" stroke="black" points="2299.12,-108 2234.38,-108 2234.38,-72 2299.12,-72 2299.12,-108"/>
<text text-anchor="middle" x="2266.75" y="-84.58" font-family="Times New Roman,serif" font-size="14.00">Regional</text>
</g>
<!-- Domestic&#45;&gt;Regional -->
<g id="edge52" class="edge">
<title>Domestic&#45;&gt;Regional</title>
<path fill="none" stroke="black" d="M2166.56,-143.62C2166.56,-124.09 2166.56,-96 2166.56,-96 2166.56,-96 2222.43,-96 2222.43,-96"/>
<polygon fill="black" stroke="black" points="2222.43,-99.5 2232.43,-96 2222.43,-92.5 2222.43,-99.5"/>
</g>
<!-- Local -->
<g id="node56" class="node">
<title>Local</title>
<polygon fill="none" stroke="black" points="2162.75,-108 2108.75,-108 2108.75,-72 2162.75,-72 2162.75,-108"/>
<text text-anchor="middle" x="2135.75" y="-84.58" font-family="Times New Roman,serif" font-size="14.00">Local</text>
</g>
<!-- Domestic&#45;&gt;Local -->
<g id="edge57" class="edge">
<title>Domestic&#45;&gt;Local</title>
<path fill="none" stroke="black" d="M2135.75,-143.83C2135.75,-143.83 2135.75,-119.93 2135.75,-119.93"/>
<polygon fill="black" stroke="black" points="2139.25,-119.93 2135.75,-109.93 2132.25,-119.93 2139.25,-119.93"/>
</g>
<!-- North -->
<g id="node52" class="node">
<title>North</title>
<polygon fill="none" stroke="black" points="2314.75,-36 2260.75,-36 2260.75,0 2314.75,0 2314.75,-36"/>
<text text-anchor="middle" x="2287.75" y="-12.57" font-family="Times New Roman,serif" font-size="14.00">North</text>
</g>
<!-- Regional&#45;&gt;North -->
<g id="edge53" class="edge">
<title>Regional&#45;&gt;North</title>
<path fill="none" stroke="black" d="M2270.34,-71.83C2270.34,-71.83 2270.34,-47.93 2270.34,-47.93"/>
<polygon fill="black" stroke="black" points="2273.84,-47.93 2270.34,-37.93 2266.84,-47.93 2273.84,-47.93"/>
</g>
<!-- South -->
<g id="node53" class="node">
<title>South</title>
<polygon fill="none" stroke="black" points="2390.75,-36 2336.75,-36 2336.75,0 2390.75,0 2390.75,-36"/>
<text text-anchor="middle" x="2363.75" y="-12.57" font-family="Times New Roman,serif" font-size="14.00">South</text>
</g>
<!-- Regional&#45;&gt;South -->
<g id="edge54" class="edge">
<title>Regional&#45;&gt;South</title>
<path fill="none" stroke="black" d="M2279.94,-71.58C2279.94,-58.04 2279.94,-42 2279.94,-42 2279.94,-42 2355.75,-42 2355.75,-42 2355.75,-42 2355.75,-41.44 2355.75,-41.44"/>
<polygon fill="black" stroke="black" points="2359.25,-47.95 2355.75,-37.95 2352.25,-47.95 2359.25,-47.95"/>
</g>
<!-- East -->
<g id="node54" class="node">
<title>East</title>
<polygon fill="none" stroke="black" points="2466.75,-36 2412.75,-36 2412.75,0 2466.75,0 2466.75,-36"/>
<text text-anchor="middle" x="2439.75" y="-12.57" font-family="Times New Roman,serif" font-size="14.00">East</text>
</g>
<!-- Regional&#45;&gt;East -->
<g id="edge55" class="edge">
<title>Regional&#45;&gt;East</title>
<path fill="none" stroke="black" d="M2289.53,-71.57C2289.53,-68.34 2289.53,-66 2289.53,-66 2289.53,-66 2431.75,-66 2431.75,-66 2431.75,-66 2431.75,-47.93 2431.75,-47.93"/>
<polygon fill="black" stroke="black" points="2435.25,-47.93 2431.75,-37.93 2428.25,-47.93 2435.25,-47.93"/>
</g>
<!-- West -->
<g id="node55" class="node">
<title>West</title>
<polygon fill="none" stroke="black" points="2238.75,-36 2184.75,-36 2184.75,0 2238.75,0 2238.75,-36"/>
<text text-anchor="middle" x="2211.75" y="-12.57" font-family="Times New Roman,serif" font-size="14.00">West</text>
</g>
<!-- Regional&#45;&gt;West -->
<g id="edge56" class="edge">
<title>Regional&#45;&gt;West</title>
<path fill="none" stroke="black" d="M2233.93,-84C2228.48,-84 2224.56,-84 2224.56,-84 2224.56,-84 2224.56,-47.9 2224.56,-47.9"/>
<polygon fill="black" stroke="black" points="2228.06,-47.9 2224.56,-37.9 2221.06,-47.9 2228.06,-47.9"/>
</g>
<!-- Urban -->
<g id="node57" class="node">
<title>Urban</title>
<polygon fill="none" stroke="black" points="2162.75,-36 2108.75,-36 2108.75,0 2162.75,0 2162.75,-36"/>
<text text-anchor="middle" x="2135.75" y="-12.57" font-family="Times New Roman,serif" font-size="14.00">Urban</text>
</g>
<!-- Local&#45;&gt;Urban -->
<g id="edge58" class="edge">
<title>Local&#45;&gt;Urban</title>
<path fill="none" stroke="black" d="M2144.75,-71.83C2144.75,-71.83 2144.75,-47.93 2144.75,-47.93"/>
<polygon fill="black" stroke="black" points="2148.25,-47.93 2144.75,-37.93 2141.25,-47.93 2148.25,-47.93"/>
</g>
<!-- Suburban -->
<g id="node58" class="node">
<title>Suburban</title>
<polygon fill="none" stroke="black" points="2010.75,-36 1940.75,-36 1940.75,0 2010.75,0 2010.75,-36"/>
<text text-anchor="middle" x="1975.75" y="-12.57" font-family="Times New Roman,serif" font-size="14.00">Suburban</text>
</g>
<!-- Local&#45;&gt;Suburban -->
<g id="edge59" class="edge">
<title>Local&#45;&gt;Suburban</title>
<path fill="none" stroke="black" d="M2126.75,-71.51C2126.75,-65.34 2126.75,-60 2126.75,-60 2126.75,-60 1983.69,-60 1983.69,-60 1983.69,-60 1983.69,-47.57 1983.69,-47.57"/>
<polygon fill="black" stroke="black" points="1987.19,-47.57 1983.69,-37.57 1980.19,-47.57 1987.19,-47.57"/>
</g>
<!-- Rural -->
<g id="node59" class="node">
<title>Rural</title>
<polygon fill="none" stroke="black" points="2086.75,-36 2032.75,-36 2032.75,0 2086.75,0 2086.75,-36"/>
<text text-anchor="middle" x="2059.75" y="-12.57" font-family="Times New Roman,serif" font-size="14.00">Rural</text>
</g>
<!-- Local&#45;&gt;Rural -->
<g id="edge60" class="edge">
<title>Local&#45;&gt;Rural</title>
<path fill="none" stroke="black" d="M2108.72,-90C2106.41,-90 2104.94,-90 2104.94,-90 2104.94,-90 2104.94,-18 2104.94,-18 2104.94,-18 2098.59,-18 2098.59,-18"/>
<polygon fill="black" stroke="black" points="2098.59,-14.5 2088.59,-18 2098.59,-21.5 2098.59,-14.5"/>
</g>
<!-- Export -->
<g id="node61" class="node">
<title>Export</title>
<polygon fill="none" stroke="black" points="2086.88,-108 2032.62,-108 2032.62,-72 2086.88,-72 2086.88,-108"/>
<text text-anchor="middle" x="2059.75" y="-84.58" font-family="Times New Roman,serif" font-size="14.00">Export</text>
</g>
<!-- International&#45;&gt;Export -->
<g id="edge62" class="edge">
<title>International&#45;&gt;Export</title>
<path fill="none" stroke="black" d="M2042.25,-143.83C2042.25,-143.83 2042.25,-119.93 2042.25,-119.93"/>
<polygon fill="black" stroke="black" points="2045.75,-119.93 2042.25,-109.93 2038.75,-119.93 2045.75,-119.93"/>
</g>
<!-- Import -->
<g id="node62" class="node">
<title>Import</title>
<polygon fill="none" stroke="black" points="2010.88,-108 1956.62,-108 1956.62,-72 2010.88,-72 2010.88,-108"/>
<text text-anchor="middle" x="1983.75" y="-84.58" font-family="Times New Roman,serif" font-size="14.00">Import</text>
</g>
<!-- International&#45;&gt;Import -->
<g id="edge63" class="edge">
<title>International&#45;&gt;Import</title>
<path fill="none" stroke="black" d="M1989.25,-143.83C1989.25,-143.83 1989.25,-119.93 1989.25,-119.93"/>
<polygon fill="black" stroke="black" points="1992.75,-119.93 1989.25,-109.93 1985.75,-119.93 1992.75,-119.93"/>
</g>
<!-- Prototyping -->
<g id="node64" class="node">
<title>Prototyping</title>
<polygon fill="none" stroke="black" points="2296.75,-180 2214.75,-180 2214.75,-144 2296.75,-144 2296.75,-180"/>
<text text-anchor="middle" x="2255.75" y="-156.57" font-family="Times New Roman,serif" font-size="14.00">Prototyping</text>
</g>
<!-- Research and Development&#45;&gt;Prototyping -->
<g id="edge65" class="edge">
<title>Research and Development&#45;&gt;Prototyping</title>
<path fill="none" stroke="black" d="M2257,-215.83C2257,-215.83 2257,-191.93 2257,-191.93"/>
<polygon fill="black" stroke="black" points="2260.5,-191.93 2257,-181.93 2253.5,-191.93 2260.5,-191.93"/>
</g>
<!-- Testing -->
<g id="node65" class="node">
<title>Testing</title>
<polygon fill="none" stroke="black" points="2376.38,-180 2319.12,-180 2319.12,-144 2376.38,-144 2376.38,-180"/>
<text text-anchor="middle" x="2347.75" y="-156.57" font-family="Times New Roman,serif" font-size="14.00">Testing</text>
</g>
<!-- Research and Development&#45;&gt;Testing -->
<g id="edge66" class="edge">
<title>Research and Development&#45;&gt;Testing</title>
<path fill="none" stroke="black" d="M2347.75,-215.83C2347.75,-215.83 2347.75,-191.93 2347.75,-191.93"/>
<polygon fill="black" stroke="black" points="2351.25,-191.93 2347.75,-181.93 2344.25,-191.93 2351.25,-191.93"/>
</g>
<!-- Product Improvement -->
<g id="node68" class="node">
<title>Product Improvement</title>
<polygon fill="none" stroke="black" points="2537.25,-180 2398.25,-180 2398.25,-144 2537.25,-144 2537.25,-180"/>
<text text-anchor="middle" x="2467.75" y="-156.57" font-family="Times New Roman,serif" font-size="14.00">Product Improvement</text>
</g>
<!-- Research and Development&#45;&gt;Product Improvement -->
<g id="edge69" class="edge">
<title>Research and Development&#45;&gt;Product Improvement</title>
<path fill="none" stroke="black" d="M2382.96,-215.62C2382.96,-196.09 2382.96,-168 2382.96,-168 2382.96,-168 2386.6,-168 2386.6,-168"/>
<polygon fill="black" stroke="black" points="2386.6,-171.5 2396.6,-168 2386.6,-164.5 2386.6,-171.5"/>
</g>
<!-- Alpha -->
<g id="node66" class="node">
<title>Alpha</title>
<polygon fill="none" stroke="black" points="2450.75,-108 2396.75,-108 2396.75,-72 2450.75,-72 2450.75,-108"/>
<text text-anchor="middle" x="2423.75" y="-84.58" font-family="Times New Roman,serif" font-size="14.00">Alpha</text>
</g>
<!-- Testing&#45;&gt;Alpha -->
<g id="edge67" class="edge">
<title>Testing&#45;&gt;Alpha</title>
<path fill="none" stroke="black" d="M2376.72,-156C2378.54,-156 2379.67,-156 2379.67,-156 2379.67,-156 2379.67,-90 2379.67,-90 2379.67,-90 2384.82,-90 2384.82,-90"/>
<polygon fill="black" stroke="black" points="2384.82,-93.5 2394.82,-90 2384.82,-86.5 2384.82,-93.5"/>
</g>
<!-- Beta -->
<g id="node67" class="node">
<title>Beta</title>
<polygon fill="none" stroke="black" points="2374.75,-108 2320.75,-108 2320.75,-72 2374.75,-72 2374.75,-108"/>
<text text-anchor="middle" x="2347.75" y="-84.58" font-family="Times New Roman,serif" font-size="14.00">Beta</text>
</g>
<!-- Testing&#45;&gt;Beta -->
<g id="edge68" class="edge">
<title>Testing&#45;&gt;Beta</title>
<path fill="none" stroke="black" d="M2347.75,-143.83C2347.75,-143.83 2347.75,-119.93 2347.75,-119.93"/>
<polygon fill="black" stroke="black" points="2351.25,-119.93 2347.75,-109.93 2344.25,-119.93 2351.25,-119.93"/>
</g>
</g>
</svg>
